<svg xmlns="http://www.w3.org/2000/svg" xmlns:xlink="http://www.w3.org/1999/xlink" width="990" height="277.1"><rect width="990" height="277.1" rx="5" ry="5" class="a"/><svg y="0%" x="0%"><circle cx="20" cy="20" r="6" fill="#ff5f58"/><circle cx="40" cy="20" r="6" fill="#ffbd2e"/><circle cx="60" cy="20" r="6" fill="#18c132"/></svg><svg height="217.1" viewBox="0 0 95 21.71" width="950" x="15" xmlns="http://www.w3.org/2000/svg" xmlns:xlink="http://www.w3.org/1999/xlink" y="50"><style>@keyframes n{0%{transform:translateX(0)}.94%{transform:translateX(-95px)}2.4%{transform:translateX(-190px)}3.57%{transform:translateX(-285px)}4.8%{transform:translateX(-380px)}5.35%{transform:translateX(-475px)}5.93%{transform:translateX(-570px)}6.54%{transform:translateX(-665px)}8.35%{transform:translateX(-760px)}11.48%{transform:translateX(-855px)}11.49%{transform:translateX(-950px)}11.56%{transform:translateX(-1045px)}11.57%{transform:translateX(-1235px)}19.02%{transform:translateX(-1520px)}19.04%{transform:translateX(-1805px)}28.81%{transform:translateX(-1995px)}29.38%{transform:translateX(-2185px)}29.82%{transform:translateX(-2375px)}30.46%{transform:translateX(-2660px)}32.06%{transform:translateX(-2850px)}33.85%{transform:translateX(-3135px)}34.39%{transform:translateX(-3325px)}35.25%{transform:translateX(-3515px)}35.9%{transform:translateX(-3705px)}37.06%{transform:translateX(-3895px)}37.7%{transform:translateX(-4085px)}38.3%{transform:translateX(-4275px)}38.93%{transform:translateX(-4465px)}41.19%{transform:translateX(-4655px)}43.59%{transform:translateX(-4845px)}44.31%{transform:translateX(-5035px)}45.11%{transform:translateX(-5225px)}45.72%{transform:translateX(-5510px)}45.73%{transform:translateX(-5605px)}48.65%{transform:translateX(-5890px)}48.66%{transform:translateX(-6080px)}53.56%{transform:translateX(-6270px)}53.57%{transform:translateX(-6365px)}53.99%{transform:translateX(-6460px)}54%{transform:translateX(-6555px)}54.5%{transform:translateX(-6745px)}55.03%{transform:translateX(-7030px)}57.43%{transform:translateX(-7220px)}61.03%{transform:translateX(-7410px)}61.45%{transform:translateX(-7505px)}61.46%{transform:translateX(-7600px)}62.01%{transform:translateX(-7885px)}62.79%{transform:translateX(-8265px)}63.41%{transform:translateX(-8455px)}63.93%{transform:translateX(-8645px)}64.45%{transform:translateX(-8835px)}64.98%{transform:translateX(-8930px)}64.99%{transform:translateX(-9025px)}66.82%{transform:translateX(-9215px)}69.49%{transform:translateX(-9405px)}71.29%{transform:translateX(-9595px)}72.05%{transform:translateX(-9880px)}72.53%{transform:translateX(-10165px)}76.7%{transform:translateX(-10355px)}76.72%{transform:translateX(-10450px)}to{transform:translateX(-10545px)}}.a{fill:#282d35}.f{fill:#b9c0cb;white-space:pre}.g{fill:#a8cc8c;font-weight:700}.g,.h,.i,.j{white-space:pre}.h{fill:#e88388;font-weight:700}.i,.j{fill:#a8cc8c}.j{fill:#b9c0cb;font-weight:700}</style><g font-family="Monaco,Consolas,Menlo,'Bitstream Vera Sans Mono','Powerline Symbols',monospace" font-size="1.67"><defs><symbol id="12"><text y="1.67" class="i">?</text><text x="2.004" y="1.67" class="j">DATABASE_HOST=</text><text x="17.034" y="1.67" class="f">your_database_host</text></symbol><symbol id="1"><text y="1.67" class="f">npm</text></symbol><symbol id="3"><text y="1.67" class="f">📅</text><text x="3.006" y="1.67" class="f">24/Feb/2020</text><text x="15.03" y="1.67" class="f">🕐</text><text x="18.036" y="1.67" class="f">16:35:22:698</text><text x="31.062" y="1.67" class="g">[📗</text><text x="36.072" y="1.67" class="g">INFO]</text><text x="42.084" y="1.67" class="f">✅</text><text x="44.088" y="1.67" class="f">Schema</text><text x="51.102" y="1.67" class="f">file</text><text x="56.112" y="1.67" class="f">checked</text><text x="64.128" y="1.67" class="f">successfully</text></symbol><symbol id="4"><text y="1.67" class="f">📅</text><text x="3.006" y="1.67" class="f">24/Feb/2020</text><text x="15.03" y="1.67" class="f">🕐</text><text x="18.036" y="1.67" class="f">16:35:22:702</text><text x="31.062" y="1.67" class="h">[❗️</text><text x="36.072" y="1.67" class="h">ALERT]</text><text x="43.086" y="1.67" class="f">.env</text><text x="48.096" y="1.67" class="f">file</text><text x="53.106" y="1.67" class="f">doesn&apos;t</text><text x="61.122" y="1.67" class="f">exist</text></symbol><symbol id="5"><text y="1.67" class="i">?</text><text x="3.006" y="1.67" class="j">We</text><text x="6.012" y="1.67" class="j">have</text><text x="11.022" y="1.67" class="j">seen</text><text x="16.032" y="1.67" class="j">that</text><text x="21.042" y="1.67" class="j">the</text><text x="25.05" y="1.67" class="j">.env</text><text x="30.06" y="1.67" class="j">file</text><text x="35.07" y="1.67" class="j">needed</text><text x="42.084" y="1.67" class="j">is</text><text x="45.09" y="1.67" class="j">not</text><text x="49.098" y="1.67" class="j">created.</text></symbol><symbol id="6"><text y="1.67" class="j">Do</text><text x="3.006" y="1.67" class="j">you</text><text x="7.014" y="1.67" class="j">want</text><text x="12.024" y="1.67" class="j">to</text><text x="15.03" y="1.67" class="j">continue</text><text x="24.048" y="1.67" class="j">creating</text><text x="33.066" y="1.67" class="j">the</text><text x="37.074" y="1.67" class="j">file?</text><text x="43.086" y="1.67" class="f">(Y/n)</text></symbol><symbol id="7"><text y="1.67" class="j">Do</text><text x="3.006" y="1.67" class="j">you</text><text x="7.014" y="1.67" class="j">want</text><text x="12.024" y="1.67" class="j">to</text><text x="15.03" y="1.67" class="j">continue</text><text x="24.048" y="1.67" class="j">creating</text><text x="33.066" y="1.67" class="j">the</text><text x="37.074" y="1.67" class="j">file?</text><text x="43.086" y="1.67" style="white-space:pre" fill="#66c2cd">Yes</text></symbol><symbol id="8"><text y="1.67" class="i">?</text><text x="2.004" y="1.67" class="j">DATABASE_HOST=</text><text x="17.034" y="1.67" class="f">()</text></symbol><symbol id="9"><text y="1.67" class="i">?</text><text x="2.004" y="1.67" class="j">DATABASE_HOST=</text><text x="17.034" y="1.67" class="f">()</text><text x="20.04" y="1.67" class="f">your</text></symbol><symbol id="10"><text y="1.67" class="i">?</text><text x="2.004" y="1.67" class="j">DATABASE_HOST=</text><text x="17.034" y="1.67" class="f">()</text><text x="20.04" y="1.67" class="f">your_d</text></symbol><symbol id="11"><text y="1.67" class="i">?</text><text x="2.004" y="1.67" class="j">DATABASE_HOST=</text><text x="17.034" y="1.67" class="f">()</text><text x="20.04" y="1.67" class="f">your_database_host</text></symbol><symbol id="2"><text y="1.67" class="f">npm</text><text x="4.008" y="1.67" class="f">start</text></symbol><symbol id="13"><text y="1.67" class="i">?</text><text x="2.004" y="1.67" class="j">DATABASE_NAME=</text><text x="17.034" y="1.67" class="f">()</text></symbol><symbol id="14"><text y="1.67" class="i">?</text><text x="2.004" y="1.67" class="j">DATABASE_NAME=</text><text x="17.034" y="1.67" class="f">()</text><text x="20.04" y="1.67" class="f">y</text></symbol><symbol id="15"><text y="1.67" class="i">?</text><text x="2.004" y="1.67" class="j">DATABASE_NAME=</text><text x="17.034" y="1.67" class="f">()</text><text x="20.04" y="1.67" class="f">your</text></symbol><symbol id="16"><text y="1.67" class="i">?</text><text x="2.004" y="1.67" class="j">DATABASE_NAME=</text><text x="17.034" y="1.67" class="f">()</text><text x="20.04" y="1.67" class="f">your_dat</text></symbol><symbol id="17"><text y="1.67" class="i">?</text><text x="2.004" y="1.67" class="j">DATABASE_NAME=</text><text x="17.034" y="1.67" class="f">()</text><text x="20.04" y="1.67" class="f">your_data</text></symbol><symbol id="18"><text y="1.67" class="i">?</text><text x="2.004" y="1.67" class="j">DATABASE_NAME=</text><text x="17.034" y="1.67" class="f">()</text><text x="20.04" y="1.67" class="f">your_database_nam</text></symbol><symbol id="19"><text y="1.67" class="i">?</text><text x="2.004" y="1.67" class="j">DATABASE_NAME=</text><text x="17.034" y="1.67" class="f">()</text><text x="20.04" y="1.67" class="f">your_database_name</text></symbol><symbol id="20"><text y="1.67" class="i">?</text><text x="2.004" y="1.67" class="j">DATABASE_NAME=</text><text x="17.034" y="1.67" class="f">your_database_name</text></symbol><symbol id="21"><text y="1.67" class="f">📅</text><text x="3.006" y="1.67" class="f">24/Feb/2020</text><text x="15.03" y="1.67" class="f">🕐</text><text x="18.036" y="1.67" class="f">16:35:33:614</text><text x="31.062" y="1.67" class="g">[📗</text><text x="36.072" y="1.67" class="g">INFO]</text><text x="42.084" y="1.67" class="f">✅</text><text x="44.088" y="1.67" class="f">Environment</text><text x="56.112" y="1.67" class="f">file</text><text x="61.122" y="1.67" class="f">has</text><text x="65.13" y="1.67" class="f">been</text><text x="70.14" y="1.67" class="f">created</text><text x="78.156" y="1.67" class="f">successfully</text></symbol><symbol id="a"><path fill="transparent" d="M0 0h95v11H0z"/></symbol><symbol id="b"><path fill="#6f7683" d="M0 0h1.102v2.171H0z"/></symbol></defs><path class="a" d="M0 0h95v21.71H0z"/><g style="animation-duration:16.726809999999997s;animation-iteration-count:infinite;animation-name:n;animation-timing-function:steps(1,end)"><svg width="10640"><svg><use xlink:href="#a"/><use xlink:href="#b" x="1.996"/><text y="1.67" class="f">np</text></svg><svg x="95"><use xlink:href="#a"/><use xlink:href="#b" x="2.996"/><use xlink:href="#1"/></svg><svg x="190"><use xlink:href="#a"/><use xlink:href="#b" x="3.996"/><use xlink:href="#1"/></svg><svg x="285"><use xlink:href="#a"/><use xlink:href="#b" x="4.996"/><text y="1.67" class="f">npm</text><text x="4.008" y="1.67" class="f">s</text></svg><svg x="380"><use xlink:href="#a"/><use xlink:href="#b" x="5.996"/><text y="1.67" class="f">npm</text><text x="4.008" y="1.67" class="f">st</text></svg><svg x="475"><use xlink:href="#a"/><use xlink:href="#b" x="6.996"/><text y="1.67" class="f">npm</text><text x="4.008" y="1.67" class="f">sta</text></svg><svg x="570"><use xlink:href="#a"/><use xlink:href="#b" x="7.996"/><text y="1.67" class="f">npm</text><text x="4.008" y="1.67" class="f">star</text></svg><svg x="665"><use xlink:href="#a"/><use xlink:href="#b" x="8.996"/><use xlink:href="#2"/></svg><svg x="760"><use xlink:href="#a"/><use xlink:href="#b" x="-.004" y="2.146"/><use xlink:href="#2"/></svg><svg x="855"><use xlink:href="#a"/><use xlink:href="#b" x="-.004" y="4.317"/><use xlink:href="#2"/><use xlink:href="#3" y="2.171"/></svg><svg x="950"><use xlink:href="#a"/><use xlink:href="#b" x="-.004" y="6.488"/><use xlink:href="#2"/><use xlink:href="#3" y="2.171"/><use xlink:href="#4" y="4.342"/></svg><svg x="1045"><use xlink:href="#a"/><use xlink:href="#b" x="48.996" y="8.659"/><use xlink:href="#2"/><use xlink:href="#3" y="2.171"/><use xlink:href="#4" y="4.342"/><use xlink:href="#5" y="6.513"/><use xlink:href="#6" y="8.684"/></svg><svg x="1140"><use xlink:href="#a"/><use xlink:href="#b" x="-.004" y="8.659"/><use xlink:href="#2"/><use xlink:href="#3" y="2.171"/><use xlink:href="#4" y="4.342"/><use xlink:href="#5" y="6.513"/><use xlink:href="#6" y="8.684"/></svg><svg x="1235"><use xlink:href="#a"/><use xlink:href="#b" x="48.996" y="8.659"/><use xlink:href="#2"/><use xlink:href="#3" y="2.171"/><use xlink:href="#4" y="4.342"/><use xlink:href="#5" y="6.513"/><use xlink:href="#6" y="8.684"/></svg><svg x="1330"><use xlink:href="#a"/><use xlink:href="#b" x="-.004" y="6.488"/><use xlink:href="#2"/><use xlink:href="#3" y="2.171"/><use xlink:href="#4" y="4.342"/></svg><svg x="1425"><use xlink:href="#a"/><use xlink:href="#b" x="45.996" y="8.659"/><use xlink:href="#2"/><use xlink:href="#3" y="2.171"/><use xlink:href="#4" y="4.342"/><use xlink:href="#5" y="6.513"/><use xlink:href="#7" y="8.684"/></svg><svg x="1520"><use xlink:href="#a"/><use xlink:href="#b" x="-.004" y="10.83"/><use xlink:href="#2"/><use xlink:href="#3" y="2.171"/><use xlink:href="#4" y="4.342"/><use xlink:href="#5" y="6.513"/><use xlink:href="#7" y="8.684"/></svg><svg x="1615"><use xlink:href="#a"/><use xlink:href="#b" x="19.996" y="10.83"/><use xlink:href="#2"/><use xlink:href="#3" y="2.171"/><use xlink:href="#4" y="4.342"/><use xlink:href="#5" y="6.513"/><use xlink:href="#7" y="8.684"/><use xlink:href="#8" y="10.855"/></svg><svg x="1710"><use xlink:href="#a"/><use xlink:href="#b" x="-.004" y="10.83"/><use xlink:href="#2"/><use xlink:href="#3" y="2.171"/><use xlink:href="#4" y="4.342"/><use xlink:href="#5" y="6.513"/><use xlink:href="#7" y="8.684"/><use xlink:href="#8" y="10.855"/></svg><svg x="1805"><use xlink:href="#a"/><use xlink:href="#b" x="19.996" y="10.83"/><use xlink:href="#2"/><use xlink:href="#3" y="2.171"/><use xlink:href="#4" y="4.342"/><use xlink:href="#5" y="6.513"/><use xlink:href="#7" y="8.684"/><use xlink:href="#8" y="10.855"/></svg><svg x="1900"><use xlink:href="#a"/><use xlink:href="#b" x="-.004" y="10.83"/><use xlink:href="#2"/><use xlink:href="#3" y="2.171"/><use xlink:href="#4" y="4.342"/><use xlink:href="#5" y="6.513"/><use xlink:href="#7" y="8.684"/></svg><svg x="1995"><use xlink:href="#a"/><use xlink:href="#b" x="20.996" y="10.83"/><use xlink:href="#2"/><use xlink:href="#3" y="2.171"/><use xlink:href="#4" y="4.342"/><use xlink:href="#5" y="6.513"/><use xlink:href="#7" y="8.684"/><text y="12.525" class="i">?</text><text x="2.004" y="12.525" class="j">DATABASE_HOST=</text><text x="17.034" y="12.525" class="f">()</text><text x="20.04" y="12.525" class="f">y</text></svg><svg x="2090"><use xlink:href="#a"/><use xlink:href="#b" x="-.004" y="10.83"/><use xlink:href="#2"/><use xlink:href="#3" y="2.171"/><use xlink:href="#4" y="4.342"/><use xlink:href="#5" y="6.513"/><use xlink:href="#7" y="8.684"/></svg><svg x="2185"><use xlink:href="#a"/><use xlink:href="#b" x="21.996" y="10.83"/><use xlink:href="#2"/><use xlink:href="#3" y="2.171"/><use xlink:href="#4" y="4.342"/><use xlink:href="#5" y="6.513"/><use xlink:href="#7" y="8.684"/><text y="12.525" class="i">?</text><text x="2.004" y="12.525" class="j">DATABASE_HOST=</text><text x="17.034" y="12.525" class="f">()</text><text x="20.04" y="12.525" class="f">yo</text></svg><svg x="2280"><use xlink:href="#a"/><use xlink:href="#b" x="-.004" y="10.83"/><use xlink:href="#2"/><use xlink:href="#3" y="2.171"/><use xlink:href="#4" y="4.342"/><use xlink:href="#5" y="6.513"/><use xlink:href="#7" y="8.684"/></svg><svg x="2375"><use xlink:href="#a"/><use xlink:href="#b" x="22.996" y="10.83"/><use xlink:href="#2"/><use xlink:href="#3" y="2.171"/><use xlink:href="#4" y="4.342"/><use xlink:href="#5" y="6.513"/><use xlink:href="#7" y="8.684"/><text y="12.525" class="i">?</text><text x="2.004" y="12.525" class="j">DATABASE_HOST=</text><text x="17.034" y="12.525" class="f">()</text><text x="20.04" y="12.525" class="f">you</text></svg><svg x="2470"><use xlink:href="#a"/><use xlink:href="#b" x="-.004" y="10.83"/><use xlink:href="#2"/><use xlink:href="#3" y="2.171"/><use xlink:href="#4" y="4.342"/><use xlink:href="#5" y="6.513"/><use xlink:href="#7" y="8.684"/></svg><svg x="2565"><use xlink:href="#a"/><use xlink:href="#b" x="-.004" y="10.83"/><use xlink:href="#2"/><use xlink:href="#3" y="2.171"/><use xlink:href="#4" y="4.342"/><use xlink:href="#5" y="6.513"/><use xlink:href="#7" y="8.684"/><use xlink:href="#9" y="10.855"/></svg><svg x="2660"><use xlink:href="#a"/><use xlink:href="#b" x="23.996" y="10.83"/><use xlink:href="#2"/><use xlink:href="#3" y="2.171"/><use xlink:href="#4" y="4.342"/><use xlink:href="#5" y="6.513"/><use xlink:href="#7" y="8.684"/><use xlink:href="#9" y="10.855"/></svg><svg x="2755"><use xlink:href="#a"/><use xlink:href="#b" x="-.004" y="10.83"/><use xlink:href="#2"/><use xlink:href="#3" y="2.171"/><use xlink:href="#4" y="4.342"/><use xlink:href="#5" y="6.513"/><use xlink:href="#7" y="8.684"/></svg><svg x="2850"><use xlink:href="#a"/><use xlink:href="#b" x="24.996" y="10.83"/><use xlink:href="#2"/><use xlink:href="#3" y="2.171"/><use xlink:href="#4" y="4.342"/><use xlink:href="#5" y="6.513"/><use xlink:href="#7" y="8.684"/><text y="12.525" class="i">?</text><text x="2.004" y="12.525" class="j">DATABASE_HOST=</text><text x="17.034" y="12.525" class="f">()</text><text x="20.04" y="12.525" class="f">your_</text></svg><svg x="2945"><use xlink:href="#a"/><use xlink:href="#b" x="-.004" y="10.83"/><use xlink:href="#2"/><use xlink:href="#3" y="2.171"/><use xlink:href="#4" y="4.342"/><use xlink:href="#5" y="6.513"/><use xlink:href="#7" y="8.684"/></svg><svg x="3040"><use xlink:href="#a"/><use xlink:href="#b" x="-.004" y="10.83"/><use xlink:href="#2"/><use xlink:href="#3" y="2.171"/><use xlink:href="#4" y="4.342"/><use xlink:href="#5" y="6.513"/><use xlink:href="#7" y="8.684"/><use xlink:href="#10" y="10.855"/></svg><svg x="3135"><use xlink:href="#a"/><use xlink:href="#b" x="25.996" y="10.83"/><use xlink:href="#2"/><use xlink:href="#3" y="2.171"/><use xlink:href="#4" y="4.342"/><use xlink:href="#5" y="6.513"/><use xlink:href="#7" y="8.684"/><use xlink:href="#10" y="10.855"/></svg><svg x="3230"><use xlink:href="#a"/><use xlink:href="#b" x="-.004" y="10.83"/><use xlink:href="#2"/><use xlink:href="#3" y="2.171"/><use xlink:href="#4" y="4.342"/><use xlink:href="#5" y="6.513"/><use xlink:href="#7" y="8.684"/></svg><svg x="3325"><use xlink:href="#a"/><use xlink:href="#b" x="26.996" y="10.83"/><use xlink:href="#2"/><use xlink:href="#3" y="2.171"/><use xlink:href="#4" y="4.342"/><use xlink:href="#5" y="6.513"/><use xlink:href="#7" y="8.684"/><text y="12.525" class="i">?</text><text x="2.004" y="12.525" class="j">DATABASE_HOST=</text><text x="17.034" y="12.525" class="f">()</text><text x="20.04" y="12.525" class="f">your_da</text></svg><svg x="3420"><use xlink:href="#a"/><use xlink:href="#b" x="-.004" y="10.83"/><use xlink:href="#2"/><use xlink:href="#3" y="2.171"/><use xlink:href="#4" y="4.342"/><use xlink:href="#5" y="6.513"/><use xlink:href="#7" y="8.684"/></svg><svg x="3515"><use xlink:href="#a"/><use xlink:href="#b" x="27.996" y="10.83"/><use xlink:href="#2"/><use xlink:href="#3" y="2.171"/><use xlink:href="#4" y="4.342"/><use xlink:href="#5" y="6.513"/><use xlink:href="#7" y="8.684"/><text y="12.525" class="i">?</text><text x="2.004" y="12.525" class="j">DATABASE_HOST=</text><text x="17.034" y="12.525" class="f">()</text><text x="20.04" y="12.525" class="f">your_dat</text></svg><svg x="3610"><use xlink:href="#a"/><use xlink:href="#b" x="-.004" y="10.83"/><use xlink:href="#2"/><use xlink:href="#3" y="2.171"/><use xlink:href="#4" y="4.342"/><use xlink:href="#5" y="6.513"/><use xlink:href="#7" y="8.684"/></svg><svg x="3705"><use xlink:href="#a"/><use xlink:href="#b" x="28.996" y="10.83"/><use xlink:href="#2"/><use xlink:href="#3" y="2.171"/><use xlink:href="#4" y="4.342"/><use xlink:href="#5" y="6.513"/><use xlink:href="#7" y="8.684"/><text y="12.525" class="i">?</text><text x="2.004" y="12.525" class="j">DATABASE_HOST=</text><text x="17.034" y="12.525" class="f">()</text><text x="20.04" y="12.525" class="f">your_data</text></svg><svg x="3800"><use xlink:href="#a"/><use xlink:href="#b" x="-.004" y="10.83"/><use xlink:href="#2"/><use xlink:href="#3" y="2.171"/><use xlink:href="#4" y="4.342"/><use xlink:href="#5" y="6.513"/><use xlink:href="#7" y="8.684"/></svg><svg x="3895"><use xlink:href="#a"/><use xlink:href="#b" x="29.996" y="10.83"/><use xlink:href="#2"/><use xlink:href="#3" y="2.171"/><use xlink:href="#4" y="4.342"/><use xlink:href="#5" y="6.513"/><use xlink:href="#7" y="8.684"/><text y="12.525" class="i">?</text><text x="2.004" y="12.525" class="j">DATABASE_HOST=</text><text x="17.034" y="12.525" class="f">()</text><text x="20.04" y="12.525" class="f">your_datab</text></svg><svg x="3990"><use xlink:href="#a"/><use xlink:href="#b" x="-.004" y="10.83"/><use xlink:href="#2"/><use xlink:href="#3" y="2.171"/><use xlink:href="#4" y="4.342"/><use xlink:href="#5" y="6.513"/><use xlink:href="#7" y="8.684"/></svg><svg x="4085"><use xlink:href="#a"/><use xlink:href="#b" x="30.996" y="10.83"/><use xlink:href="#2"/><use xlink:href="#3" y="2.171"/><use xlink:href="#4" y="4.342"/><use xlink:href="#5" y="6.513"/><use xlink:href="#7" y="8.684"/><text y="12.525" class="i">?</text><text x="2.004" y="12.525" class="j">DATABASE_HOST=</text><text x="17.034" y="12.525" class="f">()</text><text x="20.04" y="12.525" class="f">your_databa</text></svg><svg x="4180"><use xlink:href="#a"/><use xlink:href="#b" x="-.004" y="10.83"/><use xlink:href="#2"/><use xlink:href="#3" y="2.171"/><use xlink:href="#4" y="4.342"/><use xlink:href="#5" y="6.513"/><use xlink:href="#7" y="8.684"/></svg><svg x="4275"><use xlink:href="#a"/><use xlink:href="#b" x="31.996" y="10.83"/><use xlink:href="#2"/><use xlink:href="#3" y="2.171"/><use xlink:href="#4" y="4.342"/><use xlink:href="#5" y="6.513"/><use xlink:href="#7" y="8.684"/><text y="12.525" class="i">?</text><text x="2.004" y="12.525" class="j">DATABASE_HOST=</text><text x="17.034" y="12.525" class="f">()</text><text x="20.04" y="12.525" class="f">your_databas</text></svg><svg x="4370"><use xlink:href="#a"/><use xlink:href="#b" x="-.004" y="10.83"/><use xlink:href="#2"/><use xlink:href="#3" y="2.171"/><use xlink:href="#4" y="4.342"/><use xlink:href="#5" y="6.513"/><use xlink:href="#7" y="8.684"/></svg><svg x="4465"><use xlink:href="#a"/><use xlink:href="#b" x="32.996" y="10.83"/><use xlink:href="#2"/><use xlink:href="#3" y="2.171"/><use xlink:href="#4" y="4.342"/><use xlink:href="#5" y="6.513"/><use xlink:href="#7" y="8.684"/><text y="12.525" class="i">?</text><text x="2.004" y="12.525" class="j">DATABASE_HOST=</text><text x="17.034" y="12.525" class="f">()</text><text x="20.04" y="12.525" class="f">your_database</text></svg><svg x="4560"><use xlink:href="#a"/><use xlink:href="#b" x="-.004" y="10.83"/><use xlink:href="#2"/><use xlink:href="#3" y="2.171"/><use xlink:href="#4" y="4.342"/><use xlink:href="#5" y="6.513"/><use xlink:href="#7" y="8.684"/></svg><svg x="4655"><use xlink:href="#a"/><use xlink:href="#b" x="33.996" y="10.83"/><use xlink:href="#2"/><use xlink:href="#3" y="2.171"/><use xlink:href="#4" y="4.342"/><use xlink:href="#5" y="6.513"/><use xlink:href="#7" y="8.684"/><text y="12.525" class="i">?</text><text x="2.004" y="12.525" class="j">DATABASE_HOST=</text><text x="17.034" y="12.525" class="f">()</text><text x="20.04" y="12.525" class="f">your_database_</text></svg><svg x="4750"><use xlink:href="#a"/><use xlink:href="#b" x="-.004" y="10.83"/><use xlink:href="#2"/><use xlink:href="#3" y="2.171"/><use xlink:href="#4" y="4.342"/><use xlink:href="#5" y="6.513"/><use xlink:href="#7" y="8.684"/></svg><svg x="4845"><use xlink:href="#a"/><use xlink:href="#b" x="34.996" y="10.83"/><use xlink:href="#2"/><use xlink:href="#3" y="2.171"/><use xlink:href="#4" y="4.342"/><use xlink:href="#5" y="6.513"/><use xlink:href="#7" y="8.684"/><text y="12.525" class="i">?</text><text x="2.004" y="12.525" class="j">DATABASE_HOST=</text><text x="17.034" y="12.525" class="f">()</text><text x="20.04" y="12.525" class="f">your_database_h</text></svg><svg x="4940"><use xlink:href="#a"/><use xlink:href="#b" x="-.004" y="10.83"/><use xlink:href="#2"/><use xlink:href="#3" y="2.171"/><use xlink:href="#4" y="4.342"/><use xlink:href="#5" y="6.513"/><use xlink:href="#7" y="8.684"/></svg><svg x="5035"><use xlink:href="#a"/><use xlink:href="#b" x="35.996" y="10.83"/><use xlink:href="#2"/><use xlink:href="#3" y="2.171"/><use xlink:href="#4" y="4.342"/><use xlink:href="#5" y="6.513"/><use xlink:href="#7" y="8.684"/><text y="12.525" class="i">?</text><text x="2.004" y="12.525" class="j">DATABASE_HOST=</text><text x="17.034" y="12.525" class="f">()</text><text x="20.04" y="12.525" class="f">your_database_ho</text></svg><svg x="5130"><use xlink:href="#a"/><use xlink:href="#b" x="-.004" y="10.83"/><use xlink:href="#2"/><use xlink:href="#3" y="2.171"/><use xlink:href="#4" y="4.342"/><use xlink:href="#5" y="6.513"/><use xlink:href="#7" y="8.684"/></svg><svg x="5225"><use xlink:href="#a"/><use xlink:href="#b" x="36.996" y="10.83"/><use xlink:href="#2"/><use xlink:href="#3" y="2.171"/><use xlink:href="#4" y="4.342"/><use xlink:href="#5" y="6.513"/><use xlink:href="#7" y="8.684"/><text y="12.525" class="i">?</text><text x="2.004" y="12.525" class="j">DATABASE_HOST=</text><text x="17.034" y="12.525" class="f">()</text><text x="20.04" y="12.525" class="f">your_database_hos</text></svg><svg x="5320"><use xlink:href="#a"/><use xlink:href="#b" x="-.004" y="10.83"/><use xlink:href="#2"/><use xlink:href="#3" y="2.171"/><use xlink:href="#4" y="4.342"/><use xlink:href="#5" y="6.513"/><use xlink:href="#7" y="8.684"/></svg><svg x="5415"><use xlink:href="#a"/><use xlink:href="#b" x="37.996" y="10.83"/><use xlink:href="#2"/><use xlink:href="#3" y="2.171"/><use xlink:href="#4" y="4.342"/><use xlink:href="#5" y="6.513"/><use xlink:href="#7" y="8.684"/><use xlink:href="#11" y="10.855"/></svg><svg x="5510"><use xlink:href="#a"/><use xlink:href="#b" x="-.004" y="10.83"/><use xlink:href="#2"/><use xlink:href="#3" y="2.171"/><use xlink:href="#4" y="4.342"/><use xlink:href="#5" y="6.513"/><use xlink:href="#7" y="8.684"/><use xlink:href="#11" y="10.855"/></svg><svg x="5605"><use xlink:href="#a"/><use xlink:href="#b" x="37.996" y="10.83"/><use xlink:href="#2"/><use xlink:href="#3" y="2.171"/><use xlink:href="#4" y="4.342"/><use xlink:href="#5" y="6.513"/><use xlink:href="#7" y="8.684"/><use xlink:href="#11" y="10.855"/></svg><svg x="5700"><use xlink:href="#a"/><use xlink:href="#b" x="-.004" y="10.83"/><use xlink:href="#2"/><use xlink:href="#3" y="2.171"/><use xlink:href="#4" y="4.342"/><use xlink:href="#5" y="6.513"/><use xlink:href="#7" y="8.684"/></svg><svg x="5795"><use xlink:href="#a"/><use xlink:href="#b" x="34.996" y="10.83"/><use xlink:href="#2"/><use xlink:href="#3" y="2.171"/><use xlink:href="#4" y="4.342"/><use xlink:href="#5" y="6.513"/><use xlink:href="#7" y="8.684"/><use xlink:href="#12" y="10.855"/></svg><svg x="5890"><use xlink:href="#a"/><use xlink:href="#b" x="-.004" y="13.001"/><use xlink:href="#2"/><use xlink:href="#3" y="2.171"/><use xlink:href="#4" y="4.342"/><use xlink:href="#5" y="6.513"/><use xlink:href="#7" y="8.684"/><use xlink:href="#12" y="10.855"/></svg><svg x="5985"><use xlink:href="#a"/><use xlink:href="#b" x="19.996" y="13.001"/><use xlink:href="#2"/><use xlink:href="#3" y="2.171"/><use xlink:href="#4" y="4.342"/><use xlink:href="#5" y="6.513"/><use xlink:href="#7" y="8.684"/><use xlink:href="#12" y="10.855"/><use xlink:href="#13" y="13.026"/></svg><svg x="6080"><use xlink:href="#a"/><use xlink:href="#b" x="19.996" y="13.001"/><use xlink:href="#2"/><use xlink:href="#3" y="2.171"/><use xlink:href="#4" y="4.342"/><use xlink:href="#5" y="6.513"/><use xlink:href="#7" y="8.684"/><use xlink:href="#12" y="10.855"/><use xlink:href="#13" y="13.026"/></svg><svg x="6175"><use xlink:href="#a"/><use xlink:href="#b" x="-.004" y="13.001"/><use xlink:href="#2"/><use xlink:href="#3" y="2.171"/><use xlink:href="#4" y="4.342"/><use xlink:href="#5" y="6.513"/><use xlink:href="#7" y="8.684"/><use xlink:href="#12" y="10.855"/></svg><svg x="6270"><use xlink:href="#a"/><use xlink:href="#b" x="-.004" y="13.001"/><use xlink:href="#2"/><use xlink:href="#3" y="2.171"/><use xlink:href="#4" y="4.342"/><use xlink:href="#5" y="6.513"/><use xlink:href="#7" y="8.684"/><use xlink:href="#12" y="10.855"/><use xlink:href="#14" y="13.026"/></svg><svg x="6365"><use xlink:href="#a"/><use xlink:href="#b" x="20.996" y="13.001"/><use xlink:href="#2"/><use xlink:href="#3" y="2.171"/><use xlink:href="#4" y="4.342"/><use xlink:href="#5" y="6.513"/><use xlink:href="#7" y="8.684"/><use xlink:href="#12" y="10.855"/><use xlink:href="#14" y="13.026"/></svg><svg x="6460"><use xlink:href="#a"/><use xlink:href="#b" x="-.004" y="13.001"/><use xlink:href="#2"/><use xlink:href="#3" y="2.171"/><use xlink:href="#4" y="4.342"/><use xlink:href="#5" y="6.513"/><use xlink:href="#7" y="8.684"/><use xlink:href="#12" y="10.855"/></svg><svg x="6555"><use xlink:href="#a"/><use xlink:href="#b" x="21.996" y="13.001"/><use xlink:href="#2"/><use xlink:href="#3" y="2.171"/><use xlink:href="#4" y="4.342"/><use xlink:href="#5" y="6.513"/><use xlink:href="#7" y="8.684"/><use xlink:href="#12" y="10.855"/><text y="14.696" class="i">?</text><text x="2.004" y="14.696" class="j">DATABASE_NAME=</text><text x="17.034" y="14.696" class="f">()</text><text x="20.04" y="14.696" class="f">yo</text></svg><svg x="6650"><use xlink:href="#a"/><use xlink:href="#b" x="-.004" y="13.001"/><use xlink:href="#2"/><use xlink:href="#3" y="2.171"/><use xlink:href="#4" y="4.342"/><use xlink:href="#5" y="6.513"/><use xlink:href="#7" y="8.684"/><use xlink:href="#12" y="10.855"/></svg><svg x="6745"><use xlink:href="#a"/><use xlink:href="#b" x="22.996" y="13.001"/><use xlink:href="#2"/><use xlink:href="#3" y="2.171"/><use xlink:href="#4" y="4.342"/><use xlink:href="#5" y="6.513"/><use xlink:href="#7" y="8.684"/><use xlink:href="#12" y="10.855"/><text y="14.696" class="i">?</text><text x="2.004" y="14.696" class="j">DATABASE_NAME=</text><text x="17.034" y="14.696" class="f">()</text><text x="20.04" y="14.696" class="f">you</text></svg><svg x="6840"><use xlink:href="#a"/><use xlink:href="#b" x="-.004" y="13.001"/><use xlink:href="#2"/><use xlink:href="#3" y="2.171"/><use xlink:href="#4" y="4.342"/><use xlink:href="#5" y="6.513"/><use xlink:href="#7" y="8.684"/><use xlink:href="#12" y="10.855"/></svg><svg x="6935"><use xlink:href="#a"/><use xlink:href="#b" x="-.004" y="13.001"/><use xlink:href="#2"/><use xlink:href="#3" y="2.171"/><use xlink:href="#4" y="4.342"/><use xlink:href="#5" y="6.513"/><use xlink:href="#7" y="8.684"/><use xlink:href="#12" y="10.855"/><use xlink:href="#15" y="13.026"/></svg><svg x="7030"><use xlink:href="#a"/><use xlink:href="#b" x="23.996" y="13.001"/><use xlink:href="#2"/><use xlink:href="#3" y="2.171"/><use xlink:href="#4" y="4.342"/><use xlink:href="#5" y="6.513"/><use xlink:href="#7" y="8.684"/><use xlink:href="#12" y="10.855"/><use xlink:href="#15" y="13.026"/></svg><svg x="7125"><use xlink:href="#a"/><use xlink:href="#b" x="-.004" y="13.001"/><use xlink:href="#2"/><use xlink:href="#3" y="2.171"/><use xlink:href="#4" y="4.342"/><use xlink:href="#5" y="6.513"/><use xlink:href="#7" y="8.684"/><use xlink:href="#12" y="10.855"/></svg><svg x="7220"><use xlink:href="#a"/><use xlink:href="#b" x="24.996" y="13.001"/><use xlink:href="#2"/><use xlink:href="#3" y="2.171"/><use xlink:href="#4" y="4.342"/><use xlink:href="#5" y="6.513"/><use xlink:href="#7" y="8.684"/><use xlink:href="#12" y="10.855"/><text y="14.696" class="i">?</text><text x="2.004" y="14.696" class="j">DATABASE_NAME=</text><text x="17.034" y="14.696" class="f">()</text><text x="20.04" y="14.696" class="f">your_</text></svg><svg x="7315"><use xlink:href="#a"/><use xlink:href="#b" x="-.004" y="13.001"/><use xlink:href="#2"/><use xlink:href="#3" y="2.171"/><use xlink:href="#4" y="4.342"/><use xlink:href="#5" y="6.513"/><use xlink:href="#7" y="8.684"/><use xlink:href="#12" y="10.855"/></svg><svg x="7410"><use xlink:href="#a"/><use xlink:href="#b" x="25.996" y="13.001"/><use xlink:href="#2"/><use xlink:href="#3" y="2.171"/><use xlink:href="#4" y="4.342"/><use xlink:href="#5" y="6.513"/><use xlink:href="#7" y="8.684"/><use xlink:href="#12" y="10.855"/><text y="14.696" class="i">?</text><text x="2.004" y="14.696" class="j">DATABASE_NAME=</text><text x="17.034" y="14.696" class="f">()</text><text x="20.04" y="14.696" class="f">your_d</text></svg><svg x="7505"><use xlink:href="#a"/><use xlink:href="#b" x="-.004" y="13.001"/><use xlink:href="#2"/><use xlink:href="#3" y="2.171"/><use xlink:href="#4" y="4.342"/><use xlink:href="#5" y="6.513"/><use xlink:href="#7" y="8.684"/><use xlink:href="#12" y="10.855"/></svg><svg x="7600"><use xlink:href="#a"/><use xlink:href="#b" x="26.996" y="13.001"/><use xlink:href="#2"/><use xlink:href="#3" y="2.171"/><use xlink:href="#4" y="4.342"/><use xlink:href="#5" y="6.513"/><use xlink:href="#7" y="8.684"/><use xlink:href="#12" y="10.855"/><text y="14.696" class="i">?</text><text x="2.004" y="14.696" class="j">DATABASE_NAME=</text><text x="17.034" y="14.696" class="f">()</text><text x="20.04" y="14.696" class="f">your_da</text></svg><svg x="7695"><use xlink:href="#a"/><use xlink:href="#b" x="-.004" y="13.001"/><use xlink:href="#2"/><use xlink:href="#3" y="2.171"/><use xlink:href="#4" y="4.342"/><use xlink:href="#5" y="6.513"/><use xlink:href="#7" y="8.684"/><use xlink:href="#12" y="10.855"/></svg><svg x="7790"><use xlink:href="#a"/><use xlink:href="#b" x="-.004" y="13.001"/><use xlink:href="#2"/><use xlink:href="#3" y="2.171"/><use xlink:href="#4" y="4.342"/><use xlink:href="#5" y="6.513"/><use xlink:href="#7" y="8.684"/><use xlink:href="#12" y="10.855"/><use xlink:href="#16" y="13.026"/></svg><svg x="7885"><use xlink:href="#a"/><use xlink:href="#b" x="27.996" y="13.001"/><use xlink:href="#2"/><use xlink:href="#3" y="2.171"/><use xlink:href="#4" y="4.342"/><use xlink:href="#5" y="6.513"/><use xlink:href="#7" y="8.684"/><use xlink:href="#12" y="10.855"/><use xlink:href="#16" y="13.026"/></svg><svg x="7980"><use xlink:href="#a"/><use xlink:href="#b" x="-.004" y="13.001"/><use xlink:href="#2"/><use xlink:href="#3" y="2.171"/><use xlink:href="#4" y="4.342"/><use xlink:href="#5" y="6.513"/><use xlink:href="#7" y="8.684"/><use xlink:href="#12" y="10.855"/></svg><svg x="8075"><use xlink:href="#a"/><use xlink:href="#b" x="28.996" y="13.001"/><use xlink:href="#2"/><use xlink:href="#3" y="2.171"/><use xlink:href="#4" y="4.342"/><use xlink:href="#5" y="6.513"/><use xlink:href="#7" y="8.684"/><use xlink:href="#12" y="10.855"/><use xlink:href="#17" y="13.026"/></svg><svg x="8170"><use xlink:href="#a"/><use xlink:href="#b" x="-.004" y="13.001"/><use xlink:href="#2"/><use xlink:href="#3" y="2.171"/><use xlink:href="#4" y="4.342"/><use xlink:href="#5" y="6.513"/><use xlink:href="#7" y="8.684"/><use xlink:href="#12" y="10.855"/><use xlink:href="#17" y="13.026"/></svg><svg x="8265"><use xlink:href="#a"/><use xlink:href="#b" x="28.996" y="13.001"/><use xlink:href="#2"/><use xlink:href="#3" y="2.171"/><use xlink:href="#4" y="4.342"/><use xlink:href="#5" y="6.513"/><use xlink:href="#7" y="8.684"/><use xlink:href="#12" y="10.855"/><use xlink:href="#17" y="13.026"/></svg><svg x="8360"><use xlink:href="#a"/><use xlink:href="#b" x="-.004" y="13.001"/><use xlink:href="#2"/><use xlink:href="#3" y="2.171"/><use xlink:href="#4" y="4.342"/><use xlink:href="#5" y="6.513"/><use xlink:href="#7" y="8.684"/><use xlink:href="#12" y="10.855"/></svg><svg x="8455"><use xlink:href="#a"/><use xlink:href="#b" x="29.996" y="13.001"/><use xlink:href="#2"/><use xlink:href="#3" y="2.171"/><use xlink:href="#4" y="4.342"/><use xlink:href="#5" y="6.513"/><use xlink:href="#7" y="8.684"/><use xlink:href="#12" y="10.855"/><text y="14.696" class="i">?</text><text x="2.004" y="14.696" class="j">DATABASE_NAME=</text><text x="17.034" y="14.696" class="f">()</text><text x="20.04" y="14.696" class="f">your_datab</text></svg><svg x="8550"><use xlink:href="#a"/><use xlink:href="#b" x="-.004" y="13.001"/><use xlink:href="#2"/><use xlink:href="#3" y="2.171"/><use xlink:href="#4" y="4.342"/><use xlink:href="#5" y="6.513"/><use xlink:href="#7" y="8.684"/><use xlink:href="#12" y="10.855"/></svg><svg x="8645"><use xlink:href="#a"/><use xlink:href="#b" x="30.996" y="13.001"/><use xlink:href="#2"/><use xlink:href="#3" y="2.171"/><use xlink:href="#4" y="4.342"/><use xlink:href="#5" y="6.513"/><use xlink:href="#7" y="8.684"/><use xlink:href="#12" y="10.855"/><text y="14.696" class="i">?</text><text x="2.004" y="14.696" class="j">DATABASE_NAME=</text><text x="17.034" y="14.696" class="f">()</text><text x="20.04" y="14.696" class="f">your_databa</text></svg><svg x="8740"><use xlink:href="#a"/><use xlink:href="#b" x="-.004" y="13.001"/><use xlink:href="#2"/><use xlink:href="#3" y="2.171"/><use xlink:href="#4" y="4.342"/><use xlink:href="#5" y="6.513"/><use xlink:href="#7" y="8.684"/><use xlink:href="#12" y="10.855"/></svg><svg x="8835"><use xlink:href="#a"/><use xlink:href="#b" x="31.996" y="13.001"/><use xlink:href="#2"/><use xlink:href="#3" y="2.171"/><use xlink:href="#4" y="4.342"/><use xlink:href="#5" y="6.513"/><use xlink:href="#7" y="8.684"/><use xlink:href="#12" y="10.855"/><text y="14.696" class="i">?</text><text x="2.004" y="14.696" class="j">DATABASE_NAME=</text><text x="17.034" y="14.696" class="f">()</text><text x="20.04" y="14.696" class="f">your_databas</text></svg><svg x="8930"><use xlink:href="#a"/><use xlink:href="#b" x="-.004" y="13.001"/><use xlink:href="#2"/><use xlink:href="#3" y="2.171"/><use xlink:href="#4" y="4.342"/><use xlink:href="#5" y="6.513"/><use xlink:href="#7" y="8.684"/><use xlink:href="#12" y="10.855"/></svg><svg x="9025"><use xlink:href="#a"/><use xlink:href="#b" x="32.996" y="13.001"/><use xlink:href="#2"/><use xlink:href="#3" y="2.171"/><use xlink:href="#4" y="4.342"/><use xlink:href="#5" y="6.513"/><use xlink:href="#7" y="8.684"/><use xlink:href="#12" y="10.855"/><text y="14.696" class="i">?</text><text x="2.004" y="14.696" class="j">DATABASE_NAME=</text><text x="17.034" y="14.696" class="f">()</text><text x="20.04" y="14.696" class="f">your_database</text></svg><svg x="9120"><use xlink:href="#a"/><use xlink:href="#b" x="-.004" y="13.001"/><use xlink:href="#2"/><use xlink:href="#3" y="2.171"/><use xlink:href="#4" y="4.342"/><use xlink:href="#5" y="6.513"/><use xlink:href="#7" y="8.684"/><use xlink:href="#12" y="10.855"/></svg><svg x="9215"><use xlink:href="#a"/><use xlink:href="#b" x="33.996" y="13.001"/><use xlink:href="#2"/><use xlink:href="#3" y="2.171"/><use xlink:href="#4" y="4.342"/><use xlink:href="#5" y="6.513"/><use xlink:href="#7" y="8.684"/><use xlink:href="#12" y="10.855"/><text y="14.696" class="i">?</text><text x="2.004" y="14.696" class="j">DATABASE_NAME=</text><text x="17.034" y="14.696" class="f">()</text><text x="20.04" y="14.696" class="f">your_database_</text></svg><svg x="9310"><use xlink:href="#a"/><use xlink:href="#b" x="-.004" y="13.001"/><use xlink:href="#2"/><use xlink:href="#3" y="2.171"/><use xlink:href="#4" y="4.342"/><use xlink:href="#5" y="6.513"/><use xlink:href="#7" y="8.684"/><use xlink:href="#12" y="10.855"/></svg><svg x="9405"><use xlink:href="#a"/><use xlink:href="#b" x="34.996" y="13.001"/><use xlink:href="#2"/><use xlink:href="#3" y="2.171"/><use xlink:href="#4" y="4.342"/><use xlink:href="#5" y="6.513"/><use xlink:href="#7" y="8.684"/><use xlink:href="#12" y="10.855"/><text y="14.696" class="i">?</text><text x="2.004" y="14.696" class="j">DATABASE_NAME=</text><text x="17.034" y="14.696" class="f">()</text><text x="20.04" y="14.696" class="f">your_database_n</text></svg><svg x="9500"><use xlink:href="#a"/><use xlink:href="#b" x="-.004" y="13.001"/><use xlink:href="#2"/><use xlink:href="#3" y="2.171"/><use xlink:href="#4" y="4.342"/><use xlink:href="#5" y="6.513"/><use xlink:href="#7" y="8.684"/><use xlink:href="#12" y="10.855"/></svg><svg x="9595"><use xlink:href="#a"/><use xlink:href="#b" x="35.996" y="13.001"/><use xlink:href="#2"/><use xlink:href="#3" y="2.171"/><use xlink:href="#4" y="4.342"/><use xlink:href="#5" y="6.513"/><use xlink:href="#7" y="8.684"/><use xlink:href="#12" y="10.855"/><text y="14.696" class="i">?</text><text x="2.004" y="14.696" class="j">DATABASE_NAME=</text><text x="17.034" y="14.696" class="f">()</text><text x="20.04" y="14.696" class="f">your_database_na</text></svg><svg x="9690"><use xlink:href="#a"/><use xlink:href="#b" x="-.004" y="13.001"/><use xlink:href="#2"/><use xlink:href="#3" y="2.171"/><use xlink:href="#4" y="4.342"/><use xlink:href="#5" y="6.513"/><use xlink:href="#7" y="8.684"/><use xlink:href="#12" y="10.855"/></svg><svg x="9785"><use xlink:href="#a"/><use xlink:href="#b" x="36.996" y="13.001"/><use xlink:href="#2"/><use xlink:href="#3" y="2.171"/><use xlink:href="#4" y="4.342"/><use xlink:href="#5" y="6.513"/><use xlink:href="#7" y="8.684"/><use xlink:href="#12" y="10.855"/><use xlink:href="#18" y="13.026"/></svg><svg x="9880"><use xlink:href="#a"/><use xlink:href="#b" x="36.996" y="13.001"/><use xlink:href="#2"/><use xlink:href="#3" y="2.171"/><use xlink:href="#4" y="4.342"/><use xlink:href="#5" y="6.513"/><use xlink:href="#7" y="8.684"/><use xlink:href="#12" y="10.855"/><use xlink:href="#18" y="13.026"/></svg><svg x="9975"><use xlink:href="#a"/><use xlink:href="#b" x="-.004" y="13.001"/><use xlink:href="#2"/><use xlink:href="#3" y="2.171"/><use xlink:href="#4" y="4.342"/><use xlink:href="#5" y="6.513"/><use xlink:href="#7" y="8.684"/><use xlink:href="#12" y="10.855"/></svg><svg x="10070"><use xlink:href="#a"/><use xlink:href="#b" x="37.996" y="13.001"/><use xlink:href="#2"/><use xlink:href="#3" y="2.171"/><use xlink:href="#4" y="4.342"/><use xlink:href="#5" y="6.513"/><use xlink:href="#7" y="8.684"/><use xlink:href="#12" y="10.855"/><use xlink:href="#19" y="13.026"/></svg><svg x="10165"><use xlink:href="#a"/><use xlink:href="#b" x="37.996" y="13.001"/><use xlink:href="#2"/><use xlink:href="#3" y="2.171"/><use xlink:href="#4" y="4.342"/><use xlink:href="#5" y="6.513"/><use xlink:href="#7" y="8.684"/><use xlink:href="#12" y="10.855"/><use xlink:href="#19" y="13.026"/></svg><svg x="10260"><use xlink:href="#a"/><use xlink:href="#b" x="-.004" y="13.001"/><use xlink:href="#2"/><use xlink:href="#3" y="2.171"/><use xlink:href="#4" y="4.342"/><use xlink:href="#5" y="6.513"/><use xlink:href="#7" y="8.684"/><use xlink:href="#12" y="10.855"/></svg><svg x="10355"><use xlink:href="#a"/><use xlink:href="#b" x="-.004" y="15.172"/><use xlink:href="#2"/><use xlink:href="#3" y="2.171"/><use xlink:href="#4" y="4.342"/><use xlink:href="#5" y="6.513"/><use xlink:href="#7" y="8.684"/><use xlink:href="#12" y="10.855"/><use xlink:href="#20" y="13.026"/></svg><svg x="10450"><use xlink:href="#a"/><use xlink:href="#b" x="-.004" y="17.343"/><use xlink:href="#2"/><use xlink:href="#3" y="2.171"/><use xlink:href="#4" y="4.342"/><use xlink:href="#5" y="6.513"/><use xlink:href="#7" y="8.684"/><use xlink:href="#12" y="10.855"/><use xlink:href="#20" y="13.026"/><use xlink:href="#21" y="15.197"/></svg><svg x="10545"><use xlink:href="#a"/><use xlink:href="#b" x="-.004" y="19.514"/><use xlink:href="#2"/><use xlink:href="#3" y="2.171"/><use xlink:href="#4" y="4.342"/><use xlink:href="#5" y="6.513"/><use xlink:href="#7" y="8.684"/><use xlink:href="#12" y="10.855"/><use xlink:href="#20" y="13.026"/><use xlink:href="#21" y="15.197"/><text y="19.038" class="f">exit</text></svg></svg></g></g></svg></svg>